# xmcd
#
# Track frame offsets:
#	182
#	12662
#	24832
#	35435
#	49012
#	62150
#	73620
#	84222
#	92512
#	103922
#	115142
#	127010
#	139150
#	148915
#	159570
#	170027
#	181762
#	194200
#	204817
#	217442
#	227062
#	240097
#	251840
#	262597
#	273635
#
# Disc length: 3817 seconds
#
# Revision: 4
# Processed by: cddbd v1.5.2PL0 Copyright (c) Steve Scherf et al.
# Submitted via: audiograbber 1.83.01
#
DISCID=6d0ee719
DTITLE=Various Artist - All Night Boogie - The Great Atlantic Vocal Groups - V
DTITLE=olume 2  [CD2)
DYEAR=1996
DGENRE=Oldies
TTITLE0=Cardinals - Offshore
TTITLE1=Sensations - My Heart Cries For You
TTITLE2=Penguins - I Knew I'd Fall In Love
TTITLE3=Flyers - My Only Desire
TTITLE4=Sensations - You Made Me Love You
TTITLE5=Romeos - Fine, Fine Baby
TTITLE6=Romeos - Moments To Remember You By
TTITLE7=Coasters - Yakety Yak
TTITLE8=Del-Larks - Remember The Night
TTITLE9=Drifters - Drip Drop
TTITLE10=Bobbettes - Um Bow Wow
TTITLE11=Versatiles - Crying
TTITLE12=Versatiles - Passing By
TTITLE13=Coasters - Charlie Brown
TTITLE14=Bobbettes - Don't Say Goodnight
TTITLE15=Bobbettes - I Shot Mr. Lee
TTITLE16=Billy Storm - Chapel In The Moonlight
TTITLE17=Billy Storm - Dear One
TTITLE18=Billy Storm - A Kiss From Your Lips
TTITLE19=Top Notes - Twist And Shout
TTITLE20=Tex and The Chex - I Do Love You
TTITLE21=Drifters - She Never Talked To Me That Way
TTITLE22=Four Casts - Stormy Weather
TTITLE23=Skyliners - Since I Fell For You
TTITLE24=Starglows - Let's Be Lovers
EXTD=
EXTT0=
EXTT1=
EXTT2=
EXTT3=
EXTT4=
EXTT5=
EXTT6=
EXTT7=
EXTT8=
EXTT9=
EXTT10=
EXTT11=
EXTT12=
EXTT13=
EXTT14=
EXTT15=
EXTT16=
EXTT17=
EXTT18=
EXTT19=
EXTT20=
EXTT21=
EXTT22=
EXTT23=
EXTT24=
PLAYORDER=
